<svg width="160" height="117" viewBox="0 0 160 117" fill="none" xmlns="http://www.w3.org/2000/svg">
<path d="M2.62668 109.601C1.57764 109.255 0.44688 109.825 0.101045 110.874C-0.244791 111.923 0.325265 113.054 1.3743 113.399L2.00049 111.5L2.62668 109.601ZM80.5005 57L78.7216 57.9141L80.5005 57ZM60.0005 81.5L58.8536 83.1385V83.1385L60.0005 81.5ZM120.5 72.5L121.94 73.8883L120.5 72.5ZM147.547 0.731633C146.846 -0.122401 145.586 -0.246865 144.732 0.453635L130.815 11.8689C129.961 12.5694 129.836 13.8296 130.537 14.6837C131.237 15.5377 132.498 15.6622 133.352 14.9617L145.722 4.81473L155.869 17.1857C156.57 18.0397 157.83 18.1642 158.684 17.4637C159.538 16.7632 159.663 15.503 158.962 14.6489L147.547 0.731633ZM56.0005 50.5L57.1474 52.1385L56.0005 50.5ZM2.00049 111.5L1.3743 113.399C24.8308 121.132 48.9496 114.751 65.2422 102.643C81.4076 90.6287 90.5975 72.2725 82.2794 56.0859L80.5005 57L78.7216 57.9141C85.7001 71.4939 78.39 87.8876 62.8562 99.4322C47.4496 110.882 24.6702 116.868 2.62668 109.601L2.00049 111.5ZM60.0005 81.5L58.8536 83.1385C70.9427 91.6009 84.1841 91.9578 95.5861 88.8992C106.936 85.8545 116.634 79.3909 121.94 73.8883L120.5 72.5L119.061 71.1117C114.242 76.1091 105.175 82.1855 94.5497 85.0358C83.9758 87.8722 72.0297 87.4791 61.1474 79.8615L60.0005 81.5ZM120.5 72.5L121.94 73.8883C128.844 66.7287 134.38 59.0086 138.678 47.9098C142.958 36.859 145.982 22.5332 147.991 2.19657L146 2L144.01 1.80343C142.019 21.9668 139.043 35.891 134.948 46.4652C130.871 56.9914 125.657 64.2713 119.061 71.1117L120.5 72.5ZM80.5005 57L82.2794 56.0859C75.9692 43.8066 62.5649 43.4639 54.8536 48.8615L56.0005 50.5L57.1474 52.1385C63.2614 47.8589 73.7262 48.1934 78.7216 57.9141L80.5005 57ZM56.0005 50.5L54.8536 48.8615C46.1278 54.9692 42.7612 71.8738 58.8536 83.1385L60.0005 81.5L61.1474 79.8615C47.2398 70.1262 50.7859 56.5913 57.1474 52.1385L56.0005 50.5Z" fill="#CC3929"/>
</svg>
